Coordinates
version=1
nRows=10
nColumns=40
inDegrees=yes

Units are S.I. units (second, meters, Newtons, ...)
If the header above contains a line with 'inDegrees', this indicates whether rotational values are in degrees (yes) or radians (no).

endheader
time	pelvis_tilt	pelvis_list	pelvis_rotation	pelvis_tx	pelvis_ty	pelvis_tz	hip_flexion_r	hip_adduction_r	hip_rotation_r	knee_angle_r	knee_angle_r_beta	ankle_angle_r	subtalar_angle_r	mtp_angle_r	hip_flexion_l	hip_adduction_l	hip_rotation_l	knee_angle_l	knee_angle_l_beta	ankle_angle_l	subtalar_angle_l	mtp_angle_l	lumbar_extension	lumbar_bending	lumbar_rotation	arm_flex_r	arm_add_r	arm_rot_r	elbow_flex_r	pro_sup_r	wrist_flex_r	wrist_dev_r	arm_flex_l	arm_add_l	arm_rot_l	elbow_flex_l	pro_sup_l	wrist_flex_l	wrist_dev_l
      5.57500000000000017764	     38.85107087277486925814	      3.10875293151669263025	   -177.21708110115415024666	      0.37427254666719916854	      0.81271985645681210642	     -0.63280263001246128685	     66.31079793644765629779	     -9.12884327766867720300	    -12.27403656749655880276	     25.23752624843098502083	      0.44047792809361308031	     -1.50920988914768172684	      0.00000000000000000000	      0.00000000000000000000	     67.48371889947823376588	     -7.28643190776303839584	     -1.94229876605763207564	     22.40980187054979211325	      0.39112482736067794020	     -7.55454313928133558420	      0.00000000000000000000	      0.00000000000000000000	    -18.36347411687452435558	      5.34219298809217502111	      1.82269573611039659156	     46.88867431598377777391	    -12.09578705227279193934	     63.09358297841534124473	      0.84179310197082168887	     84.06450763086029098758	      0.00000000000000000000	      0.00000000000000000000	     36.76963668340491153685	     -5.03882397685178773372	     81.03049634052233329840	      0.51910401477767353917	      2.32756290208474458936	      0.00000000000000000000	      0.00000000000000000000
      5.58000000000000007105	     38.68667383334936715755	      2.98400834080160581863	   -177.04401016826784598379	      0.37388538524934311624	      0.81296727536674018300	     -0.63231712889604285710	     66.21846946093668861977	     -9.38254445548393434251	    -12.13713014594373440502	     25.50048130381375699471	      0.44506735959480653309	     -1.10587058767077373034	      0.00000000000000000000	      0.00000000000000000000	     67.34976736595055513135	     -7.07619896901389910937	     -2.04935993553631323749	     22.59500767050653990964	      0.39435727836371320398	     -7.26694837069573651434	      0.00000000000000000000	      0.00000000000000000000	    -17.93677712564970150311	      5.27150637724521509142	      1.57479239659541958574	     46.49177275111571816524	    -12.11446619454353879064	     63.32497800890086381287	      0.85854932734387590099	     84.07242542180746625036	      0.00000000000000000000	      0.00000000000000000000	     36.44254547799041432654	     -5.10178325542500221701	     81.46975072258916839019	      0.51404949129672661279	      2.33301482896084833030	      0.00000000000000000000	      0.00000000000000000000
      5.58499999999999996447	     38.36676632323558777671	      3.73027131811626277980	   -176.90755933217235451593	      0.37308537619347709180	      0.81341048145635530542	     -0.63296047793777232560	     65.61983971204074350680	     -9.01412464688375791866	    -12.90868276117750568233	     25.35694154761356955419	      0.44256211824160329726	     -1.01481242802083948540	      0.00000000000000000000	      0.00000000000000000000	     67.22911816786221095299	     -7.35891288933440890219	     -1.03818414783090950948	     22.72362286608021619827	      0.39660203699457025062	     -7.13568233989777134241	      0.00000000000000000000	      0.00000000000000000000	    -17.64969678267978281383	      6.03430732068497821530	      1.71762161378806488266	     46.07335459918510878197	    -12.21295404398421702297	     63.56174984103732583662	      0.86934572757814965183	     84.08265043070366573374	      0.00000000000000000000	      0.00000000000000000000	     35.99062554304943972738	     -5.26385913854678477719	     83.13633013891593748212	      0.51360982548232680944	      2.33695602429670579170	      0.00000000000000000000	      0.00000000000000000000
      5.58999999999999985789	     38.20907213482229991541	      3.72859702154769934168	   -176.90045380928481222327	      0.37256839535248786888	      0.81379099738730187319	     -0.63305251639632054150	     65.43861525141591073407	     -9.00723348170309634497	    -12.90270681339414160504	     25.39442494394595328799	      0.44321632692243334573	     -1.03039398805874671261	      0.00000000000000000000	      0.00000000000000000000	     67.04366912036394410279	     -7.37581897270196940042	     -1.04650022449006718794	     22.74432207255589588613	      0.39696330630012099938	     -7.14247588857121762373	      0.00000000000000000000	      0.00000000000000000000	    -17.22738525571049095220	      6.00158298064638895397	      1.68256465257940046598	     45.66225201638957997829	    -12.21282136313244137682	     63.57888900899308026737	      0.85823544518508043666	     84.09924042662909471346	      0.00000000000000000000	      0.00000000000000000000	     35.69441555901925511307	     -5.28661176158543089088	     83.12008823081372099750	      0.52096247504457293687	      2.33887179053797877870	      0.00000000000000000000	      0.00000000000000000000
      5.59499999999999975131	     38.05945660429863863783	      3.72197135561602276965	   -176.90450279359669139012	      0.37201651409837632745	      0.81417773422840200581	     -0.63328386911427114736	     65.26280279151448837638	     -8.98933905903145458183	    -12.90904791832554998621	     25.42658360526704441895	      0.44377760144552014232	     -1.02224117174657247453	      0.00000000000000000000	      0.00000000000000000000	     66.84714806676838350086	     -7.40984985982088151246	     -1.04078562070690683328	     22.75847515005767363050	      0.39721032410181694727	     -7.13044854661612603763	      0.00000000000000000000	      0.00000000000000000000	    -16.80113854407426998705	      5.95539425405016054071	      1.65515179388384803261	     45.26113430895330935755	    -12.21006907535384300445	     63.61071165763642198954	      0.86083140740716135308	     84.11566644513787593951	      0.00000000000000000000	      0.00000000000000000000	     35.37912470883055249260	     -5.31332389698270635137	     83.12372614012558358354	      0.52290567578514757230	      2.34259092158856718768	      0.00000000000000000000	      0.00000000000000000000
      5.59999999999999964473	     37.92721854552396365534	      3.70958929721718932981	   -176.91894675690562621639	      0.37144622976360786026	      0.81452897456269945931	     -0.63342809401609445619	     65.08896248613957880025	     -8.96667496277033926333	    -12.92941204294782586715	     25.44231633541033588131	      0.44405218938684831720	     -0.97776566927870611767	      0.00000000000000000000	      0.00000000000000000000	     66.66323673442983022142	     -7.43726240506773006445	     -1.05005091901327096693	     22.75358356593352127106	      0.39712494985321222796	     -7.09059552676883519950	      0.00000000000000000000	      0.00000000000000000000	    -16.34433668914416770690	      5.90299769287849152022	      1.61801683817800423526	     44.85487263417701342405	    -12.22502660724786771596	     63.68563080476284454789	      0.86669456947833622973	     84.13315957825882662746	      0.00000000000000000000	      0.00000000000000000000	     35.01293462054491101298	     -5.33632684909605536916	     83.16918404685884524952	      0.52334855581885886266	      2.34963049868976092682	      0.00000000000000000000	      0.00000000000000000000
      5.60500000000000042633	     37.79144100656652938142	      3.68897748239224387845	   -176.93899620771756531212	      0.37080429841309986427	      0.81490282503488387089	     -0.63363949703531441404	     64.90088207949517595807	     -8.93702584303017744105	    -12.94859126801088322622	     25.45015699966189970382	      0.44418903479358151642	     -0.92850297217214516898	      0.00000000000000000000	      0.00000000000000000000	     66.47214678462272274828	     -7.46778934687948581228	     -1.03839832564326628450	     22.77238513253451657192	      0.39745309909493259370	     -7.07495215775608166098	      0.00000000000000000000	      0.00000000000000000000	    -15.88553029764783275368	      5.84082690614791033568	      1.61476928206692038614	     44.43142650297919260538	    -12.21980591660952519817	     63.77766561829444924570	      0.86949910551524844937	     84.15185025663370765869	      0.00000000000000000000	      0.00000000000000000000	     34.66755666979425143381	     -5.39583893837750405709	     83.23874848677805005082	      0.52431933287564769230	      2.35472999926843762353	      0.00000000000000000000	      0.00000000000000000000
      5.61000000000000031974	     37.84321932834866686335	      3.60903987822342386949	   -177.03128046967734121608	      0.37061922538773151015	      0.81492376862910420598	     -0.63394296749937284474	     64.93563655725294836429	     -8.83626273390323646595	    -12.64124249862637228148	     25.39153659716381739031	      0.44316591576114572337	     -0.62587333898992225656	      0.00000000000000000000	      0.00000000000000000000	     66.44187636375411898371	     -7.49213366127843993780	     -1.03682693072415865743	     22.69791108175617111442	      0.39615328170155300613	     -6.99000899591117441645	      0.00000000000000000000	      0.00000000000000000000	    -15.19909837004051844644	      5.75974287259775685754	      1.52560827773044560551	     44.05590158887918761366	    -12.20984708219680747732	     65.75429773868238214618	      0.87724495445463968046	     84.12861326657235849780	      0.00000000000000000000	      0.00000000000000000000	     34.16285147491185369972	     -5.72314558470886147745	     84.76124116093008353801	      0.52581715720794264257	      2.39657110668117612207	      0.00000000000000000000	      0.00000000000000000000
      5.61500000000000021316	     37.69856341119655240846	      3.60720040197094382606	   -177.02842383894468980543	      0.37003097680190016883	      0.81535693941986042699	     -0.63410156980412335503	     64.73923035397505998390	     -8.82616918878763634382	    -12.70043530039203361071	     25.39787104860572952703	      0.44327647279511478429	     -0.66599688775781273886	      0.00000000000000000000	      0.00000000000000000000	     66.25953863704265245360	     -7.51180511757431634834	     -1.04880567813801217625	     22.71858821618763712991	      0.39651416577725961954	     -6.99596736313126843498	      0.00000000000000000000	      0.00000000000000000000	    -14.74377051718054154605	      5.66891085610513201232	      1.51608102491454399541	     43.62752210984407241767	    -12.22835555207927704657	     65.77335891776847631718	      0.87688379966005847166	     84.12939498865074483547	      0.00000000000000000000	      0.00000000000000000000	     33.88048138210874782317	     -5.73836683964370042332	     84.78448869385105979291	      0.53174116062006493433	      2.39861912177701386284	      0.00000000000000000000	      0.00000000000000000000
      5.62000000000000010658	     37.55488314068055188955	      3.59417278927433025970	   -177.04069475812485734423	      0.36930176269154396662	      0.81580039588332975420	     -0.63438143989365070041	     64.53493871357370892383	     -8.80111485752293631890	    -12.74280709335626582401	     25.39973932230454778392	      0.44330908032248755868	     -0.68105379342961147593	      0.00000000000000000000	      0.00000000000000000000	     66.05731472197055609286	     -7.54839604668778907381	     -1.03581505168765231062	     22.73790769793822619249	      0.39685135434358631557	     -6.99591280200074816520	      0.00000000000000000000	      0.00000000000000000000	    -14.29233240286419892584	      5.59763438338909224967	      1.51245520904489993974	     43.18647056553239593768	    -12.22807594857988888748	     65.81512760516987725623	      0.88407983672161005728	     84.13688909199241550141	      0.00000000000000000000	      0.00000000000000000000	     33.58290057547501561430	     -5.78023441110231406270	     84.81245831258515011086	      0.53361672584837149813	      2.40102608640621406622	      0.00000000000000000000	      0.00000000000000000000
